<svg width="61" height="71" viewBox="0 0 61 71" fill="none" xmlns="http://www.w3.org/2000/svg">
<path d="M0 24C0 10.7452 10.7452 0 24 0H49C55.6274 0 61 5.37258 61 12V24C61 49.9574 39.9574 71 14 71H10C4.47715 71 0 66.5229 0 61V24Z" fill="#FF0000"/>
<g clip-path="url(#clip0_3_64)">
<path d="M14 15.7812C14 15.5077 14.1086 15.2454 14.302 15.052C14.4954 14.8586 14.7577 14.75 15.0313 14.75H18.125C18.355 14.7501 18.5784 14.827 18.7597 14.9687C18.941 15.1103 19.0696 15.3085 19.1253 15.5317L19.9606 18.875H43.9063C44.0577 18.8751 44.2072 18.9086 44.3442 18.9731C44.4813 19.0375 44.6024 19.1314 44.6991 19.2479C44.7957 19.3645 44.8655 19.5009 44.9035 19.6474C44.9415 19.794 44.9468 19.9472 44.9189 20.096L41.8252 36.596C41.781 36.8323 41.6555 37.0457 41.4706 37.1994C41.2857 37.3531 41.0529 37.4373 40.8125 37.4375H22.25C22.0096 37.4373 21.7768 37.3531 21.5919 37.1994C21.407 37.0457 21.2816 36.8323 21.2373 36.596L18.1456 20.1269L17.3206 16.8125H15.0313C14.7577 16.8125 14.4954 16.7039 14.302 16.5105C14.1086 16.3171 14 16.0548 14 15.7812ZM20.3979 20.9375L23.1059 35.375H39.9566L42.6646 20.9375H20.3979ZM24.3125 37.4375C23.2185 37.4375 22.1693 37.8721 21.3957 38.6457C20.6221 39.4193 20.1875 40.4685 20.1875 41.5625C20.1875 42.6565 20.6221 43.7057 21.3957 44.4793C22.1693 45.2529 23.2185 45.6875 24.3125 45.6875C25.4065 45.6875 26.4557 45.2529 27.2293 44.4793C28.0029 43.7057 28.4375 42.6565 28.4375 41.5625C28.4375 40.4685 28.0029 39.4193 27.2293 38.6457C26.4557 37.8721 25.4065 37.4375 24.3125 37.4375ZM38.75 37.4375C37.656 37.4375 36.6068 37.8721 35.8332 38.6457C35.0596 39.4193 34.625 40.4685 34.625 41.5625C34.625 42.6565 35.0596 43.7057 35.8332 44.4793C36.6068 45.2529 37.656 45.6875 38.75 45.6875C39.844 45.6875 40.8932 45.2529 41.6668 44.4793C42.4404 43.7057 42.875 42.6565 42.875 41.5625C42.875 40.4685 42.4404 39.4193 41.6668 38.6457C40.8932 37.8721 39.844 37.4375 38.75 37.4375ZM24.3125 39.5C24.8595 39.5 25.3841 39.7173 25.7709 40.1041C26.1577 40.4909 26.375 41.0155 26.375 41.5625C26.375 42.1095 26.1577 42.6341 25.7709 43.0209C25.3841 43.4077 24.8595 43.625 24.3125 43.625C23.7655 43.625 23.2409 43.4077 22.8541 43.0209C22.4673 42.6341 22.25 42.1095 22.25 41.5625C22.25 41.0155 22.4673 40.4909 22.8541 40.1041C23.2409 39.7173 23.7655 39.5 24.3125 39.5ZM38.75 39.5C39.297 39.5 39.8216 39.7173 40.2084 40.1041C40.5952 40.4909 40.8125 41.0155 40.8125 41.5625C40.8125 42.1095 40.5952 42.6341 40.2084 43.0209C39.8216 43.4077 39.297 43.625 38.75 43.625C38.203 43.625 37.6784 43.4077 37.2916 43.0209C36.9048 42.6341 36.6875 42.1095 36.6875 41.5625C36.6875 41.0155 36.9048 40.4909 37.2916 40.1041C37.6784 39.7173 38.203 39.5 38.75 39.5V39.5Z" fill="white"/>
</g>
<defs>
<clipPath id="clip0_3_64">
<rect width="33" height="33" fill="white" transform="translate(14 12)"/>
</clipPath>
</defs>
</svg>
