<svg width="252" height="252" viewBox="0 0 252 252" fill="none" xmlns="http://www.w3.org/2000/svg">
<g filter="url(#filter0_d_107_30)">
<circle cx="117" cy="114" r="111" fill="white"/>
</g>
<path d="M47.0124 143.909V84.8182H50.7979V143.909H47.0124ZM56.13 104.9C55.9761 103.207 55.2913 101.891 54.0756 100.953C52.8754 99.9987 51.1596 99.5217 48.9283 99.5217C47.451 99.5217 46.2199 99.714 45.2351 100.099C44.2502 100.483 43.5116 101.014 43.0192 101.691C42.5268 102.353 42.2728 103.115 42.2575 103.977C42.2267 104.684 42.3652 105.308 42.6729 105.846C42.9961 106.385 43.4577 106.862 44.0579 107.277C44.6734 107.677 45.4121 108.031 46.2738 108.339C47.1355 108.647 48.105 108.916 49.1822 109.147L53.2447 110.07C55.5837 110.578 57.6457 111.255 59.4308 112.102C61.2312 112.948 62.7392 113.956 63.9549 115.125C65.186 116.295 66.117 117.641 66.7479 119.165C67.3788 120.688 67.7019 122.396 67.7173 124.289C67.7019 127.274 66.9479 129.837 65.4553 131.975C63.9626 134.114 61.8159 135.753 59.0153 136.892C56.23 138.031 52.8677 138.6 48.9283 138.6C44.9735 138.6 41.5265 138.008 38.5874 136.823C35.6482 135.638 33.363 133.837 31.7319 131.422C30.1007 129.006 29.2621 125.951 29.2159 122.258H40.157C40.2493 123.781 40.6571 125.051 41.3803 126.066C42.1036 127.082 43.0961 127.851 44.358 128.375C45.6352 128.898 47.1125 129.159 48.7898 129.159C50.3286 129.159 51.6366 128.952 52.7138 128.536C53.8063 128.121 54.645 127.544 55.2298 126.805C55.8145 126.066 56.1146 125.22 56.13 124.266C56.1146 123.373 55.8376 122.612 55.299 121.981C54.7604 121.335 53.9295 120.781 52.8061 120.319C51.6982 119.842 50.2824 119.403 48.559 119.003L43.6193 117.849C39.526 116.91 36.3022 115.395 33.9478 113.302C31.5934 111.194 30.4239 108.347 30.4393 104.761C30.4239 101.838 31.2087 99.2754 32.7937 97.0749C34.3787 94.8744 36.5715 93.1586 39.3722 91.9276C42.1728 90.6965 45.3659 90.081 48.9514 90.081C52.6138 90.081 55.7914 90.7042 58.4844 91.9506C61.1927 93.1817 63.2932 94.9129 64.7859 97.1442C66.2785 99.3755 67.0402 101.961 67.071 104.9H56.13ZM75.4038 138L94.4698 100.237V99.9371H72.1722V90.7273H106.288V100.006L87.1527 138H75.4038ZM110.876 138.669C109.214 138.669 107.79 138.085 106.605 136.915C105.436 135.746 104.859 134.33 104.874 132.668C104.859 131.037 105.436 129.644 106.605 128.49C107.79 127.321 109.214 126.736 110.876 126.736C112.445 126.736 113.83 127.321 115.03 128.49C116.246 129.644 116.862 131.037 116.877 132.668C116.862 133.776 116.569 134.784 116 135.692C115.446 136.6 114.715 137.323 113.807 137.862C112.915 138.4 111.937 138.669 110.876 138.669ZM141.021 90.081C143.606 90.081 146.076 90.5041 148.431 91.3505C150.785 92.1815 152.886 93.5125 154.732 95.3438C156.579 97.1596 158.033 99.5524 159.095 102.522C160.157 105.492 160.687 109.116 160.687 113.394C160.703 117.334 160.241 120.865 159.302 123.989C158.364 127.097 157.017 129.744 155.263 131.929C153.524 134.114 151.431 135.784 148.985 136.938C146.538 138.077 143.806 138.646 140.79 138.646C137.467 138.646 134.535 138.008 131.996 136.73C129.472 135.438 127.449 133.699 125.925 131.514C124.417 129.329 123.517 126.882 123.225 124.174H134.466C134.82 125.743 135.566 126.928 136.705 127.728C137.844 128.513 139.205 128.906 140.79 128.906C143.683 128.906 145.845 127.651 147.277 125.143C148.708 122.635 149.423 119.226 149.423 114.918H149.146C148.485 116.333 147.546 117.549 146.33 118.565C145.13 119.58 143.737 120.357 142.152 120.896C140.567 121.435 138.898 121.704 137.143 121.704C134.312 121.704 131.811 121.058 129.642 119.765C127.487 118.472 125.795 116.695 124.563 114.433C123.348 112.171 122.732 109.586 122.717 106.677C122.701 103.415 123.463 100.537 125.002 98.0444C126.541 95.5361 128.688 93.5818 131.442 92.1815C134.197 90.7657 137.39 90.0656 141.021 90.081ZM141.09 98.8523C139.675 98.8523 138.413 99.1831 137.305 99.8448C136.212 100.507 135.351 101.399 134.72 102.522C134.089 103.646 133.781 104.908 133.796 106.308C133.812 107.708 134.127 108.97 134.743 110.093C135.374 111.217 136.228 112.109 137.305 112.771C138.398 113.433 139.644 113.763 141.044 113.763C142.091 113.763 143.06 113.571 143.953 113.186C144.845 112.802 145.622 112.271 146.284 111.594C146.946 110.901 147.461 110.101 147.831 109.193C148.215 108.285 148.4 107.316 148.384 106.285C148.369 104.915 148.046 103.669 147.415 102.545C146.784 101.422 145.915 100.53 144.807 99.8679C143.714 99.1908 142.475 98.8523 141.09 98.8523ZM184.757 90.081C187.342 90.081 189.812 90.5041 192.166 91.3505C194.52 92.1815 196.621 93.5125 198.468 95.3438C200.314 97.1596 201.768 99.5524 202.83 102.522C203.892 105.492 204.423 109.116 204.423 113.394C204.438 117.334 203.977 120.865 203.038 123.989C202.099 127.097 200.753 129.744 198.998 131.929C197.26 134.114 195.167 135.784 192.72 136.938C190.273 138.077 187.542 138.646 184.526 138.646C181.202 138.646 178.27 138.008 175.731 136.73C173.208 135.438 171.184 133.699 169.661 131.514C168.153 129.329 167.252 126.882 166.96 124.174H178.201C178.555 125.743 179.301 126.928 180.44 127.728C181.579 128.513 182.941 128.906 184.526 128.906C187.419 128.906 189.581 127.651 191.012 125.143C192.443 122.635 193.159 119.226 193.159 114.918H192.882C192.22 116.333 191.281 117.549 190.066 118.565C188.865 119.58 187.473 120.357 185.888 120.896C184.303 121.435 182.633 121.704 180.879 121.704C178.047 121.704 175.547 121.058 173.377 119.765C171.223 118.472 169.53 116.695 168.299 114.433C167.083 112.171 166.468 109.586 166.452 106.677C166.437 103.415 167.199 100.537 168.737 98.0444C170.276 95.5361 172.423 93.5818 175.177 92.1815C177.932 90.7657 181.125 90.0656 184.757 90.081ZM184.826 98.8523C183.41 98.8523 182.148 99.1831 181.04 99.8448C179.948 100.507 179.086 101.399 178.455 102.522C177.824 103.646 177.516 104.908 177.532 106.308C177.547 107.708 177.863 108.97 178.478 110.093C179.109 111.217 179.963 112.109 181.04 112.771C182.133 113.433 183.379 113.763 184.78 113.763C185.826 113.763 186.796 113.571 187.688 113.186C188.581 112.802 189.358 112.271 190.019 111.594C190.681 110.901 191.197 110.101 191.566 109.193C191.951 108.285 192.135 107.316 192.12 106.285C192.104 104.915 191.781 103.669 191.15 102.545C190.519 101.422 189.65 100.53 188.542 99.8679C187.45 99.1908 186.211 98.8523 184.826 98.8523Z" fill="#FF0000"/>
<defs>
<filter id="filter0_d_107_30" x="0" y="0" width="252" height="252" filterUnits="userSpaceOnUse" color-interpolation-filters="sRGB">
<feFlood flood-opacity="0" result="BackgroundImageFix"/>
<feColorMatrix in="SourceAlpha" type="matrix" values="0 0 0 0 0 0 0 0 0 0 0 0 0 0 0 0 0 0 127 0" result="hardAlpha"/>
<feOffset dx="9" dy="12"/>
<feGaussianBlur stdDeviation="7.5"/>
<feComposite in2="hardAlpha" operator="out"/>
<feColorMatrix type="matrix" values="0 0 0 0 0 0 0 0 0 0 0 0 0 0 0 0 0 0 0.25 0"/>
<feBlend mode="normal" in2="BackgroundImageFix" result="effect1_dropShadow_107_30"/>
<feBlend mode="normal" in="SourceGraphic" in2="effect1_dropShadow_107_30" result="shape"/>
</filter>
</defs>
</svg>
